# xmcd
#
# Track frame offsets:
#	150
#	30517
#	68686
#	82606
#	127545
#	155552
#	167540
#	212799
#
# Disc length: 3186 seconds
#
# Revision: 2
# Processed by: cddbd v1.5.2PL0 Copyright (c) Steve Scherf et al.
# Submitted via: audiograbber 1.83.01
#
DISCID=510c7008
DTITLE=Tides From Nebula - Earthshine
DYEAR=2011
DGENRE=progrock
TTITLE0=These Days, Glory Days
TTITLE1=The Fall Of Leviathan
TTITLE2=Waiting For The World To Turn Back
TTITLE3=Caravans
TTITLE4=White Gardens
TTITLE5=Hypothermia
TTITLE6=Siberia
TTITLE7=Cemetery Of Frozen Ships
EXTD=
EXTT0=
EXTT1=
EXTT2=
EXTT3=
EXTT4=
EXTT5=
EXTT6=
EXTT7=
PLAYORDER=
